<mxfile host="app.diagrams.net" modified="2022-04-20T08:09:12.513Z" agent="5.0 (X11; Linux x86_64) AppleWebKit/537.36 (KHTML, like Gecko) Chrome/100.0.4896.127 Safari/537.36" etag="uRJRDZwMRACxsIMJvibq" version="17.4.5" type="github">
  <diagram id="R_yBspzYUkKq-raP2EWu" name="Page-1">
    <mxGraphModel dx="1422" dy="773" grid="1" gridSize="10" guides="1" tooltips="1" connect="1" arrows="1" fold="1" page="1" pageScale="1" pageWidth="850" pageHeight="1100" math="0" shadow="0">
      <root>
        <mxCell id="0" />
        <mxCell id="1" parent="0" />
        <mxCell id="HRuVShX14q1HtiPYT6U7-1" value="&lt;b&gt;Frontend&lt;/b&gt;" style="rounded=1;whiteSpace=wrap;html=1;fillColor=#d5e8d4;strokeColor=#82b366;" vertex="1" parent="1">
          <mxGeometry x="80" y="160" width="120" height="40" as="geometry" />
        </mxCell>
        <mxCell id="HRuVShX14q1HtiPYT6U7-2" value="&lt;b&gt;Backend&lt;/b&gt;" style="rounded=1;whiteSpace=wrap;html=1;fillColor=#fff2cc;strokeColor=#d6b656;" vertex="1" parent="1">
          <mxGeometry x="80" y="240" width="120" height="40" as="geometry" />
        </mxCell>
        <mxCell id="HRuVShX14q1HtiPYT6U7-3" value="&lt;b&gt;This service&lt;/b&gt;" style="rounded=1;whiteSpace=wrap;html=1;fillColor=#e1d5e7;strokeColor=#9673a6;" vertex="1" parent="1">
          <mxGeometry x="80" y="360" width="120" height="40" as="geometry" />
        </mxCell>
        <mxCell id="HRuVShX14q1HtiPYT6U7-4" value="&lt;b&gt;Kafdrop&lt;/b&gt;" style="rounded=1;whiteSpace=wrap;html=1;" vertex="1" parent="1">
          <mxGeometry x="760" y="60" width="240" height="60" as="geometry" />
        </mxCell>
        <mxCell id="HRuVShX14q1HtiPYT6U7-5" value="&lt;b&gt;Kafka&lt;/b&gt;" style="rounded=1;whiteSpace=wrap;html=1;" vertex="1" parent="1">
          <mxGeometry x="840" y="200" width="80" height="280" as="geometry" />
        </mxCell>
        <mxCell id="HRuVShX14q1HtiPYT6U7-6" value="" style="endArrow=classic;html=1;rounded=0;fontColor=#1A1A1A;entryX=0.5;entryY=0;entryDx=0;entryDy=0;" edge="1" parent="1" source="HRuVShX14q1HtiPYT6U7-4" target="HRuVShX14q1HtiPYT6U7-5">
          <mxGeometry width="50" height="50" relative="1" as="geometry">
            <mxPoint x="760" y="390" as="sourcePoint" />
            <mxPoint x="810" y="340" as="targetPoint" />
          </mxGeometry>
        </mxCell>
        <mxCell id="HRuVShX14q1HtiPYT6U7-7" value="&lt;span style=&quot;font-family: &amp;#34;lato&amp;#34; , &amp;#34;arial&amp;#34;&quot;&gt;&lt;b&gt;&lt;font style=&quot;font-size: 12px&quot;&gt;cont-overweight-router&lt;/font&gt;&lt;/b&gt;&lt;/span&gt;" style="rounded=1;whiteSpace=wrap;html=1;fillColor=#fff2cc;strokeColor=#d6b656;" vertex="1" parent="1">
          <mxGeometry x="1240" y="200" width="80" height="280" as="geometry" />
        </mxCell>
        <mxCell id="HRuVShX14q1HtiPYT6U7-8" value="&lt;pre&gt;&lt;font face=&quot;jetbrains mono, monospace&quot; color=&quot;#1a1a1a&quot;&gt;&lt;span style=&quot;font-size: 13.0667px ; background-color: rgb(255 , 255 , 255)&quot;&gt;vehicle.hswin.marked&lt;/span&gt;&lt;/font&gt;&lt;/pre&gt;" style="text;html=1;strokeColor=none;fillColor=none;align=center;verticalAlign=middle;whiteSpace=wrap;rounded=0;" vertex="1" parent="1">
          <mxGeometry x="550" y="410" width="180" height="30" as="geometry" />
        </mxCell>
        <mxCell id="HRuVShX14q1HtiPYT6U7-9" value="&lt;b&gt;3rd party&lt;/b&gt;" style="rounded=1;whiteSpace=wrap;html=1;" vertex="1" parent="1">
          <mxGeometry x="80" y="80" width="120" height="40" as="geometry" />
        </mxCell>
        <mxCell id="HRuVShX14q1HtiPYT6U7-10" value="serv-measurement-axle" style="rounded=1;whiteSpace=wrap;html=1;fillColor=#e1d5e7;strokeColor=#9673a6;" vertex="1" parent="1">
          <mxGeometry x="440" y="200" width="80" height="280" as="geometry" />
        </mxCell>
        <mxCell id="HRuVShX14q1HtiPYT6U7-11" value="&lt;pre&gt;&lt;font face=&quot;jetbrains mono, monospace&quot; color=&quot;#1a1a1a&quot;&gt;&lt;span style=&quot;font-size: 13.0667px ; background-color: rgb(255 , 255 , 255)&quot;&gt;axle.measurement.state.station1&lt;/span&gt;&lt;/font&gt;&lt;/pre&gt;" style="text;html=1;strokeColor=none;fillColor=none;align=center;verticalAlign=middle;whiteSpace=wrap;rounded=0;" vertex="1" parent="1">
          <mxGeometry x="590" y="210" width="180" height="30" as="geometry" />
        </mxCell>
        <mxCell id="HRuVShX14q1HtiPYT6U7-12" value="&lt;b&gt;Web-operator&lt;/b&gt;" style="rounded=1;whiteSpace=wrap;html=1;fillColor=#d5e8d4;strokeColor=#82b366;" vertex="1" parent="1">
          <mxGeometry x="360" y="60" width="240" height="60" as="geometry" />
        </mxCell>
        <mxCell id="HRuVShX14q1HtiPYT6U7-13" value="" style="endArrow=classic;html=1;rounded=0;fontSize=12;exitX=1;exitY=0.139;exitDx=0;exitDy=0;exitPerimeter=0;entryX=-0.012;entryY=0.139;entryDx=0;entryDy=0;entryPerimeter=0;" edge="1" parent="1" source="HRuVShX14q1HtiPYT6U7-10" target="HRuVShX14q1HtiPYT6U7-5">
          <mxGeometry width="50" height="50" relative="1" as="geometry">
            <mxPoint x="590" y="250" as="sourcePoint" />
            <mxPoint x="770" y="230" as="targetPoint" />
          </mxGeometry>
        </mxCell>
        <mxCell id="HRuVShX14q1HtiPYT6U7-15" value="" style="endArrow=classic;html=1;rounded=0;fontSize=12;entryX=1.002;entryY=0.851;entryDx=0;entryDy=0;entryPerimeter=0;exitX=-0.022;exitY=0.852;exitDx=0;exitDy=0;exitPerimeter=0;" edge="1" parent="1" source="HRuVShX14q1HtiPYT6U7-5" target="HRuVShX14q1HtiPYT6U7-10">
          <mxGeometry width="50" height="50" relative="1" as="geometry">
            <mxPoint x="620" y="350" as="sourcePoint" />
            <mxPoint x="670" y="300" as="targetPoint" />
          </mxGeometry>
        </mxCell>
        <mxCell id="HRuVShX14q1HtiPYT6U7-16" value="" style="endArrow=classic;html=1;rounded=0;fontSize=12;exitX=0.5;exitY=1;exitDx=0;exitDy=0;entryX=0.5;entryY=0;entryDx=0;entryDy=0;" edge="1" parent="1" source="HRuVShX14q1HtiPYT6U7-12" target="HRuVShX14q1HtiPYT6U7-10">
          <mxGeometry width="50" height="50" relative="1" as="geometry">
            <mxPoint x="670" y="360" as="sourcePoint" />
            <mxPoint x="720" y="310" as="targetPoint" />
          </mxGeometry>
        </mxCell>
        <mxCell id="HRuVShX14q1HtiPYT6U7-17" value="&lt;pre&gt;&lt;font face=&quot;jetbrains mono, monospace&quot; color=&quot;#1a1a1a&quot;&gt;&lt;span style=&quot;font-size: 13.0667px ; background-color: rgb(255 , 255 , 255)&quot;&gt;vehicle.hswin.marked&lt;/span&gt;&lt;/font&gt;&lt;/pre&gt;" style="text;html=1;strokeColor=none;fillColor=none;align=center;verticalAlign=middle;whiteSpace=wrap;rounded=0;" vertex="1" parent="1">
          <mxGeometry x="990" y="410" width="180" height="30" as="geometry" />
        </mxCell>
        <mxCell id="HRuVShX14q1HtiPYT6U7-18" value="&lt;pre&gt;&lt;font face=&quot;jetbrains mono, monospace&quot; color=&quot;#1a1a1a&quot;&gt;&lt;span style=&quot;font-size: 13.0667px ; background-color: rgb(255 , 255 , 255)&quot;&gt;axle.measurement.state.station1&lt;/span&gt;&lt;/font&gt;&lt;font color=&quot;#bbbbbb&quot; face=&quot;jetbrains mono, monospace&quot; style=&quot;background-color: rgb(40 , 44 , 52)&quot;&gt;&lt;span style=&quot;font-size: 9.8pt&quot;&gt;&lt;br&gt;&lt;/span&gt;&lt;/font&gt;&lt;/pre&gt;" style="text;html=1;strokeColor=none;fillColor=none;align=center;verticalAlign=middle;whiteSpace=wrap;rounded=0;" vertex="1" parent="1">
          <mxGeometry x="990" y="210" width="180" height="30" as="geometry" />
        </mxCell>
        <mxCell id="HRuVShX14q1HtiPYT6U7-19" value="" style="endArrow=classic;html=1;rounded=0;fontSize=12;exitX=-0.01;exitY=0.857;exitDx=0;exitDy=0;exitPerimeter=0;entryX=1.002;entryY=0.859;entryDx=0;entryDy=0;entryPerimeter=0;" edge="1" parent="1" source="HRuVShX14q1HtiPYT6U7-7" target="HRuVShX14q1HtiPYT6U7-5">
          <mxGeometry width="50" height="50" relative="1" as="geometry">
            <mxPoint x="1050" y="430" as="sourcePoint" />
            <mxPoint x="860" y="450" as="targetPoint" />
          </mxGeometry>
        </mxCell>
        <mxCell id="HRuVShX14q1HtiPYT6U7-20" value="&lt;b&gt;postgres-db&lt;/b&gt;" style="rounded=1;whiteSpace=wrap;html=1;" vertex="1" parent="1">
          <mxGeometry x="360" y="560" width="240" height="60" as="geometry" />
        </mxCell>
        <mxCell id="HRuVShX14q1HtiPYT6U7-21" value="" style="endArrow=classic;startArrow=classic;html=1;rounded=0;exitX=0.5;exitY=0;exitDx=0;exitDy=0;entryX=0.5;entryY=1;entryDx=0;entryDy=0;" edge="1" parent="1" source="HRuVShX14q1HtiPYT6U7-20" target="HRuVShX14q1HtiPYT6U7-10">
          <mxGeometry width="50" height="50" relative="1" as="geometry">
            <mxPoint x="690" y="390" as="sourcePoint" />
            <mxPoint x="740" y="340" as="targetPoint" />
          </mxGeometry>
        </mxCell>
        <mxCell id="HRuVShX14q1HtiPYT6U7-22" value="" style="endArrow=classic;html=1;rounded=0;fontSize=12;exitX=1.008;exitY=0.427;exitDx=0;exitDy=0;exitPerimeter=0;entryX=-0.028;entryY=0.427;entryDx=0;entryDy=0;entryPerimeter=0;" edge="1" parent="1" source="HRuVShX14q1HtiPYT6U7-5" target="HRuVShX14q1HtiPYT6U7-7">
          <mxGeometry width="50" height="50" relative="1" as="geometry">
            <mxPoint x="870" y="320.2799999999999" as="sourcePoint" />
            <mxPoint x="1050" y="320" as="targetPoint" />
          </mxGeometry>
        </mxCell>
        <mxCell id="HRuVShX14q1HtiPYT6U7-23" value="" style="endArrow=classic;html=1;rounded=0;fontSize=12;exitX=1.014;exitY=0.14;exitDx=0;exitDy=0;exitPerimeter=0;entryX=-0.028;entryY=0.143;entryDx=0;entryDy=0;entryPerimeter=0;" edge="1" parent="1" source="HRuVShX14q1HtiPYT6U7-5" target="HRuVShX14q1HtiPYT6U7-7">
          <mxGeometry width="50" height="50" relative="1" as="geometry">
            <mxPoint x="870" y="239.52" as="sourcePoint" />
            <mxPoint x="1020" y="250" as="targetPoint" />
          </mxGeometry>
        </mxCell>
        <mxCell id="HRuVShX14q1HtiPYT6U7-24" value="" style="endArrow=classic;html=1;rounded=0;fontSize=12;exitX=1.014;exitY=0.429;exitDx=0;exitDy=0;exitPerimeter=0;entryX=0;entryY=0.429;entryDx=0;entryDy=0;entryPerimeter=0;" edge="1" parent="1" source="HRuVShX14q1HtiPYT6U7-10" target="HRuVShX14q1HtiPYT6U7-5">
          <mxGeometry width="50" height="50" relative="1" as="geometry">
            <mxPoint x="540.0000000000001" y="289.99999999999994" as="sourcePoint" />
            <mxPoint x="777.12" y="289.99999999999994" as="targetPoint" />
          </mxGeometry>
        </mxCell>
        <mxCell id="HRuVShX14q1HtiPYT6U7-25" value="&lt;pre style=&quot;color: rgb(0 , 0 , 0) ; font-size: 12px ; font-style: normal ; font-weight: 400 ; letter-spacing: normal ; text-align: center ; text-indent: 0px ; text-transform: none ; word-spacing: 0px ; background-color: rgb(248 , 249 , 250)&quot;&gt;&lt;font face=&quot;jetbrains mono, monospace&quot; color=&quot;#1a1a1a&quot;&gt;&lt;span style=&quot;font-size: 13.0667px ; background-color: rgb(255 , 255 , 255)&quot;&gt;axle.measurement.state.station2&lt;/span&gt;&lt;/font&gt;&lt;/pre&gt;" style="text;whiteSpace=wrap;html=1;" vertex="1" parent="1">
          <mxGeometry x="560" y="280" width="270" height="50" as="geometry" />
        </mxCell>
        <mxCell id="HRuVShX14q1HtiPYT6U7-26" value="&lt;pre style=&quot;color: rgb(0 , 0 , 0) ; font-size: 12px ; font-style: normal ; font-weight: 400 ; letter-spacing: normal ; text-align: center ; text-indent: 0px ; text-transform: none ; word-spacing: 0px ; background-color: rgb(248 , 249 , 250)&quot;&gt;&lt;font face=&quot;jetbrains mono, monospace&quot; color=&quot;#1a1a1a&quot;&gt;&lt;span style=&quot;font-size: 13.0667px ; background-color: rgb(255 , 255 , 255)&quot;&gt;axle.measurement.state.station2&lt;/span&gt;&lt;/font&gt;&lt;/pre&gt;" style="text;whiteSpace=wrap;html=1;" vertex="1" parent="1">
          <mxGeometry x="960" y="280" width="270" height="50" as="geometry" />
        </mxCell>
      </root>
    </mxGraphModel>
  </diagram>
</mxfile>
